<?xml version="1.0" encoding="UTF-8"?>
<svg id="Layer_1" data-name="Layer 1" xmlns="http://www.w3.org/2000/svg" viewBox="0 0 200.89 81.89">
  <defs>
    <style>
      .cls-1 {
        fill: #1a2c57;
      }

      .cls-2 {
        fill: #1c3462;
      }
    </style>
  </defs>
  <path class="cls-1" d="M91.7,20.81l.08,17.65c-.39.08-.27-.05-.37-.21-.43-.67-.82-1.64-1.25-2.37-.28-.48-2.06-3.66-2.28-3.7-.43-.07-3.28,2.01-4.26,2.33-4.34,1.42-9.02-1.5-11.17-5.18-2.41-4.13-3.17-10.89-1.67-15.42s5.87-9.1,10.6-5.89h30.53c2.27-1.61,4.76-1.29,6.91.34,8.49,6.43,4.51,27.7-7.82,26.47-1.75-.18-5.14-2.72-5.59-2.65-.35.05-3.06,5.34-3.53,6.07-.11.16.02.29-.37.21v-17.41s.23-.25.25-.25h7.67v2.39s-.23.25-.25.25h-3.55c.09,1.83-.68,3.89.29,5.57,1.93,3.31,5.94,5.15,9.33,2.65,5.14-3.77,5.62-11.59,3.74-17.22-1.26-3.77-3.59-6.38-7.85-5.04-.69.22-1.39.75-2.13.84-2.69.33-6.29-.41-8.9,0-.51.08-.95.5-1.21.93l-.02,45.82c.54,3,2.61,5.91,6.03,5.07.52-.13.88-.43,1.38-.52-.5,1.83-2.34,2.98-4.21,2.98-3.78,0-6.77-4.03-7.66-7.37l-.1-46.1c-.42-.38-.9-.76-1.48-.83-2.65-.32-6.17.4-8.74,0-.97-.15-2.04-1.02-3.31-1.14-7.11-.71-8.22,10.74-7.1,15.68s6.21,10.8,11.39,6.75c.78-.61,2.62-2.6,2.73-3.54.18-1.49-.19-3.05-.17-4.54h-3.55s-.25-.23-.25-.25v-2.39h7.84Z"/>
  <path class="cls-2" d="M83.37,66.51v2.64h2.97v-2.64h1.65c.08.06-.16.21-.16.25v6.35h-1.65c.2-1.09.18-2.19.17-3.3h-2.97v3.3c-2.05.04-1.36.19-1.31-1.23.06-1.73.07-3.68-.17-5.37h1.48Z"/>
  <path class="cls-2" d="M63.73,72.94c-2.51.7-6.38.47-6.45-2.89s3.68-4.45,6.38-3.23l-.26,1c-2.13-2.27-4.67-.42-4.45,2.39.13,1.64,1.5,2.92,3.19,2.37.53-.17.17-1.95.27-2.45h1.32v2.81Z"/>
  <path class="cls-2" d="M118.51,72.94c-2.51.7-6.38.47-6.45-2.89s3.68-4.45,6.38-3.23l-.26,1c-2.13-2.27-4.67-.42-4.45,2.39.13,1.64,1.5,2.92,3.19,2.37.53-.17.17-1.95.27-2.45h1.32v2.81Z"/>
  <path class="cls-2" d="M125.77,72.94c-2.51.7-6.38.47-6.45-2.89s3.68-4.45,6.38-3.23l-.26,1c-2.13-2.27-4.67-.42-4.45,2.39.13,1.64,1.5,2.92,3.19,2.37.53-.17.17-1.95.27-2.45h1.32v2.81Z"/>
  <path class="cls-2" d="M110.43,70.96v-4.45s.54.02.66,0l-.16,6.6c-1.01.1-1.54-1.12-2.14-1.74-.91-.93-1.83-1.86-2.81-2.72v4.45h-.83s.17-6.6.17-6.6l.92.16,4.2,4.3Z"/>
  <path class="cls-2" d="M151.51,65.85v2.97c3.76-2.4,4.68,4.75.76,4.28-.44-.05-.95-.47-1.15-.46-.34.03-.55.52-.93.47v-7.26h1.32ZM152.12,68.85c-1.06.32-.86,5.08.72,3.7.73-.64.87-4.18-.72-3.7Z"/>
  <path class="cls-2" d="M42.45,70.3v2.8h-1.48v-6.6h3.22c.38,0,1.05.74,1.16,1.15.53,1.95-1.21,2.76-2.89,2.64ZM42.45,67v2.64c2.08.32,1.99-2.9,0-2.64Z"/>
  <path class="cls-2" d="M157.12,65.85v4.78c.45-.21,1.49-2,1.68-2.11.23-.13.68,0,.96-.03-.08.5-1.43,1.5-1.47,1.75-.04.21,1.49,2.41,1.63,2.86-2.01.46-1.7-1.08-2.8-2.14v2.15s-1.32,0-1.32,0v-7.26h1.32Z"/>
  <path class="cls-2" d="M97.89,66.51h1.65c-.14,1.25-.47,4.2.1,5.27s2.26,1.14,2.95.17c.08-.11.42-.84.42-.9v-4.54c1.34-.19.68.4.65,1.23-.1,2.76.5,5.99-3.67,5.33-.83-.13-2.1-.95-2.1-1.86v-4.7Z"/>
  <path class="cls-2" d="M70.66,73.11c-.36-.07-1.4.12-1.63-.02-.2-.13-.38-1.8-.79-1.93-.51-.17-1.52.08-2.1-.03-.27.24-.53,1.91-.6,1.98s-.77-.03-.98,0l2.66-6.58c.28-.05.7-.09.89.14l2.55,6.44ZM68.19,70.63l-.99-2.31-.83,2.31h1.81Z"/>
  <path class="cls-2" d="M80.56,73.11c-.36-.07-1.4.12-1.63-.02-.2-.13-.38-1.8-.79-1.93-.51-.17-1.52.08-2.1-.03-.27.24-.53,1.91-.6,1.98s-.77-.03-.98,0l2.66-6.58c.28-.05.7-.09.89.14l2.55,6.44ZM78.09,70.63l-.99-2.31-.83,2.31h1.81Z"/>
  <path class="cls-2" d="M132.7,73.11c-.36-.07-1.4.12-1.63-.02-.2-.13-.38-1.8-.79-1.93-.51-.17-1.52.08-2.1-.03-.27.24-.53,1.91-.6,1.98s-.77-.03-.98,0l2.66-6.58c.28-.05.7-.09.89.14l2.55,6.44ZM130.23,70.63l-.99-2.31-.83,2.31h1.81Z"/>
  <path class="cls-2" d="M50.86,66.51c-.16.32-.17.51,0,.82l-1.98-.16v5.94h-1.49s.17-5.94.17-5.94l-1.82.17v-.83h5.12Z"/>
  <path class="cls-2" d="M96.9,66.51c-.16.32-.17.51,0,.82l-1.98-.16v5.94h-1.49s.17-5.94.17-5.94l-1.82.17v-.83h5.12Z"/>
  <path class="cls-2" d="M149.7,66.51c-.16.32-.17.51,0,.82l-1.98-.16v5.94h-1.49s.17-5.94.17-5.94l-1.82.17v-.83h5.12Z"/>
  <path class="cls-2" d="M73.47,66.51v6.35c0,.83-1.97,2.58-2.31,1.24.41.13.83-.41.83-.74v-6.85h1.48Z"/>
  <path class="cls-2" d="M133.69,66.51h1.65c.08.06-.16.21-.16.25v5.69l2.31-.16c-.17.32-.16.51,0,.82h-3.96c-.04-.12.16-.2.16-.25v-6.35Z"/>
  <path class="cls-2" d="M138.64,74.92c-.03-.76,1.08-.82.83-1.81-1.89.29-1.19-2.22.16-1.23,1.09.8.33,2.96-.98,3.05Z"/>
  <path class="cls-2" d="M52.14,71.65c1.31-.39,1.45,1.64.14,1.46-.77-.11-.8-1.27-.14-1.46Z"/>
</svg>