<?xml version="1.0" encoding="UTF-8"?>
<svg id="Layer_1" data-name="Layer 1" xmlns="http://www.w3.org/2000/svg" viewBox="0 0 200.89 81.89">
  <defs>
    <style>
      .cls-1 {
        fill: #e62829;
      }
    </style>
  </defs>
  <g>
    <path d="M95.99,32.24v14.2c0,.16.18,1.1.24,1.32.72,2.7,5.26,2.9,6.34.31.07-.18.35-.81.35-.92v-14.91h7.49c.04.1-.14.17-.14.21v14.84c0,.37-.48,2.18-.64,2.61-1.81,5.1-7.44,5.71-12.15,5.37-5.94-.42-8.52-3.8-8.84-9.53-.24-4.42.19-9.06,0-13.5h7.35Z"/>
    <path d="M153.5,38.74h-6.92c.03-2.17-4.61-2.61-5.26-1.09-.48,1.12.89,1.83,1.73,2.15,2.87,1.1,6.33,1.11,8.89,3.12,3.42,2.69,2.82,8.03-.56,10.43-5.23,3.71-17.31,2.48-17.65-5.57h7.06c.17,2.43,3.97,2.94,5.62,1.87s.41-2.31-.91-2.83c-3.83-1.51-10.05-1.26-11.17-6.5-1.64-7.69,7.64-9.85,13.35-8.27,3.19.89,5.58,3.29,5.83,6.68Z"/>
    <path d="M154.35,54.71l7.98-22.33,7.62-.15,8,22.47h-7.35l-.94-2.95-7.27.06-.83,2.89h-7.21ZM168.48,47.08l-2.26-7.91-2.4,7.91h4.66Z"/>
    <path d="M110.41,54.71l8.26-22.48,7.41.02,7.93,22.45h-7.35l-.94-2.95-7.27.06-.9,2.88h-7.14ZM124.54,47.08l-2.26-7.91-2.4,7.91h4.66Z"/>
    <polygon points="71.83 32.24 75.58 39.73 79.53 32.24 87.52 32.24 79.18 46.44 79.18 54.71 71.83 54.71 71.83 46.44 63.5 32.24 71.83 32.24"/>
  </g>
  <path class="cls-1" d="M30.01,26.53l5.51,17.45v11.37h-1.84v-10.81c0-.05-.26-.82-.32-.95l-10.42-17.06h7.06Z"/>
  <path class="cls-1" d="M62.51,26.53l-10.29,16.77c-.1.2-.45,1.11-.45,1.25v10.81h-1.84v-11.37l5.51-17.45h7.06Z"/>
  <polygon class="cls-1" points="42.58 26.53 41.45 42.42 41.46 55.36 40.75 55.36 40.75 43.7 35.94 26.53 42.58 26.53"/>
  <polygon class="cls-1" points="49.51 26.53 44.7 43.84 44.7 55.36 44.14 55.36 44.14 44.26 42.87 26.53 49.51 26.53"/>
  <polygon class="cls-1" points="55.16 26.53 47.53 44.41 47.53 55.36 46.97 55.36 46.97 43.56 49.79 26.53 55.16 26.53"/>
  <path class="cls-1" d="M35.66,26.53l2.82,16.89v11.94s-.56,0-.56,0v-10.95c0-.16-.28-.97-.35-1.2l-7.27-16.67h5.37Z"/>
</svg>