<?xml version="1.0" encoding="UTF-8"?>
<svg id="Layer_1" data-name="Layer 1" xmlns="http://www.w3.org/2000/svg" viewBox="0 0 200.89 81.89">
  <defs>
    <style>
      .cls-1 {
        fill: #fff;
      }

      .cls-2 {
        fill: #e62829;
      }
    </style>
  </defs>
  <path class="cls-2" d="M69.5,55.7H19.4v-29.5h49.89s.21.19.21.21v29.3ZM25.03,33.43c-.72,0-1.44,0-2.16,0l11.63,11.69c.11.15.05.26,0,.41-.23.59-1.7,2.27-2.16,3-.23.36-.48.74-.7,1.11-.06.11-.28.25-.06.36,6.98-1.21,13.99-2.4,20.83-4.22,2.85-.76,11.85-3.29,13.53-5.39.55-.69.53-1.5-.14-2.08-2.17-1.89-10.23-3.19-13.24-3.6-5.4-.73-10.96-1.09-16.4-1.28-3.17-.11-6.37,0-9.54-.13l.21.42,10.08,10.1.36.2c1.7-.2,3.43-.23,5.13-.43.13-.02.61-.08.5-.33l-8.21-8.42c1.93.3,3.96.07,5.92.13,6.44.19,14.51.83,20.69,2.55,1.3.36,5.64,1.35,2.61,2.67-2.04.89-5,1.5-7.21,1.98-6.43,1.38-13.01,2.09-19.57,2.54l-.84-.55c-3.67-3.6-7.22-7.4-10.99-10.85-.13,0-.24.13-.28.13Z"/>
  <path class="cls-2" d="M80.31,33.04c1.05-.23,5-.12,6.24-.04,3.09.21,5.14,1.82,5.87,4.85.84,3.48.3,8.85-3.64,10.19-1.56.53-6.66.64-8.36.42-.24-.03-.42-.05-.55-.28v-14.89c.12-.13.28-.21.45-.25ZM83.14,46.79h3.55c.37,0,1.43-.91,1.66-1.26,1.24-1.84,1.16-7.67-.03-9.55-.36-.57-1.39-1.3-2.04-1.3h-3.13v12.11Z"/>
  <path class="cls-2" d="M118.76,33.15c.57-.15,3.34-.42,3.34.35v6.05h5.15v-6.05c0-.05.16-.31.23-.36.37-.23,3.11-.27,3.11.22v14.89s-.19.21-.21.21h-2.78s-.35-.32-.35-.35v-6.89h-5.15v6.75c0,.05-.32.49-.35.49h-2.78s-.21-.19-.21-.21v-15.1Z"/>
  <path class="cls-2" d="M107.91,48.46h-3.27c-.38,0-1.26-3.52-1.55-4.04l-5.25.03c-.44.15-1.02,3.42-1.41,3.88-.25.3-1.57.06-2.02.14l4.94-14.89c.23-.5.3-.51.83-.57.75-.07,2.48-.21,2.8.55l4.9,14.03.03.87ZM102.62,42.75l-2.09-6.54-2.23,6.54h4.31Z"/>
  <path class="cls-2" d="M146.46,48.46h-3.27c-.35,0-1.29-3.41-1.45-3.96-.15-.23-4.78-.04-5.45-.02-.34.4-1.18,3.97-1.39,3.97h-1.95l5.04-15.28c.21-.25,3.46-.5,3.52.52l4.84,13.95.1.81ZM141.03,42.75l-2.23-6.54-2.09,6.54h4.31Z"/>
  <path class="cls-2" d="M173.46,44.22c.04.49.19,1.23.44,1.65,1.29,2.09,5.32,1.65,5.54-1.09l.02-11.53c.11-.34,2.11-.48,1.94.25-.25,3.69.31,7.78,0,11.42-.47,5.45-10.46,4.65-11.13-.43l-.02-11.24c.07-.33,3.21-.42,3.21.12v10.86Z"/>
  <path class="cls-2" d="M166.64,35.38c-1.08-.29-1.97-.89-3.13-.97-2.83-.2-3.45,1.81-1.39,3.61,1.94,1.69,4.91,2.84,5.32,5.82.63,4.62-4.24,5.37-7.71,4.51-1.22-.3-1.62-.35-1.45-1.77.11-.9,1.03-.06,1.68.14,1.33.41,4.65.97,4.74-1.1s-3.15-3.52-4.47-4.73c-4.88-4.49-.75-9.49,5.29-7.66,1.45.44,1.1.75,1.11,2.16Z"/>
  <path class="cls-2" d="M145.69,34.82c-.51-.14-.59-1.92.27-1.82,3.47.31,7.6-.4,10.99.02.14.02.47.07.5.22.05.23.04,1.44-.21,1.44h-4.11v13.57s-.19.21-.21.21h-2.92s-.21-.19-.21-.21v-13.43c-1.07-.19-3.18.26-4.11,0Z"/>
  <path class="cls-2" d="M110.69,33.36c.14-.5,2.24-.4,2.72-.35.38.04.68.08.73.51l.04,14.04c0,.29-.08.77-.38.88-.6.2-2.41-.01-3.11-.12v-14.96Z"/>
  <path class="cls-1" d="M25.32,33.3c3.77,3.45,7.31,7.26,10.99,10.85l.84.55c6.56-.45,13.14-1.16,19.57-2.54,2.2-.47,5.17-1.09,7.21-1.98,3.03-1.32-1.31-2.31-2.61-2.67-6.19-1.72-14.25-2.36-20.69-2.55-1.96-.06-3.99.17-5.92-.13l8.21,8.42c.11.25-.36.32-.5.33-1.7.2-3.43.23-5.13.43l-.36-.2-10.08-10.1-.21-.42c3.17.13,6.36.02,9.54.13,5.43.19,11,.55,16.4,1.28,3.01.41,11.07,1.71,13.24,3.6.67.58.69,1.39.14,2.08-1.68,2.1-10.68,4.64-13.53,5.39-6.85,1.82-13.85,3.01-20.83,4.22-.22-.11,0-.25.06-.36.22-.37.46-.75.7-1.11.47-.72,1.93-2.4,2.16-3,.06-.15.11-.26,0-.41l-11.83-11.69c.72,0,2.51-.13,2.65-.13Z"/>
</svg>