<?xml version="1.0" encoding="UTF-8"?>
<svg id="Layer_1" data-name="Layer 1" xmlns="http://www.w3.org/2000/svg" xmlns:xlink="http://www.w3.org/1999/xlink" viewBox="0 0 200.89 81.89">
  <defs>
    <style>
      .cls-1 {
        fill: url(#linear-gradient-2);
      }

      .cls-2 {
        fill: #cb2227;
      }

      .cls-3 {
        fill: #d62227;
      }

      .cls-4 {
        fill: #cd2227;
      }

      .cls-5 {
        fill: #ca2227;
      }

      .cls-6 {
        fill: #d62127;
      }

      .cls-7 {
        fill: url(#linear-gradient);
      }
    </style>
    <linearGradient id="linear-gradient" x1="39.97" y1="52.53" x2="39.97" y2="28.95" gradientUnits="userSpaceOnUse">
      <stop offset="0" stop-color="#f3f4f4"/>
      <stop offset=".11" stop-color="#edeeee"/>
      <stop offset=".25" stop-color="#ddddde"/>
      <stop offset=".4" stop-color="#c3c2c3"/>
      <stop offset=".57" stop-color="#9e9d9d"/>
      <stop offset=".75" stop-color="#6f6c6d"/>
      <stop offset=".94" stop-color="#363233"/>
      <stop offset="1" stop-color="#231f20"/>
    </linearGradient>
    <linearGradient id="linear-gradient-2" x1="39.97" y1="28" x2="39.97" y2="53" xlink:href="#linear-gradient"/>
  </defs>
  <path class="cls-6" d="M108.42,31.71l4.85,7.75,1.53-1.86c.46-.73,3.44-5.89,3.8-5.89h4.24c-.21.92-.85,1.84-1.35,2.64-1.2,1.9-5.61,7.83-6.04,9.46-.26.98.59,7.03-.23,7.03h-3.75v-7.14l-7.51-11.99h4.48Z"/>
  <path class="cls-3" d="M160.12,31.71v3.39h-6.05v15.74h-3.75c-.2,0-.43-.59-.38-.84v-14.9s-6.04,0-6.04,0v-3.39h16.22Z"/>
  <path class="cls-6" d="M82.4,31.71v3.39h-5.69s-.36.34-.36.36v15.38h-3.87v-15.38s-.34-.36-.36-.36h-5.93c.07-.52-.25-3.39.36-3.39h15.86Z"/>
  <g>
    <path class="cls-5" d="M136.8,31.66c-11.31-4.37-18.98,12.14-8.79,18.11,12.61,7.39,21.98-13.01,8.79-18.11ZM129.28,45.6c-.36-.39-.62-.33-1.02-1.04-3.67-6.58,4.72-13.87,9.44-7.5,4.22,5.7-2.69,14.75-8.42,8.54Z"/>
    <path class="cls-5" d="M100.08,33.52c-8.21-7.01-20.04,2.08-15.68,11.81,2.93,6.53,11.78,7.77,16.56,2.52,3.61-3.97,3.23-10.83-.88-14.33ZM94.37,47.68c-1.55.25-3.48-.51-4.63-1.51-4.17-3.64-1.49-12.42,4.59-11.49,6.68,1.02,6.3,12.01.04,13Z"/>
    <path class="cls-5" d="M175.67,40.01c-.96-2.35-1.69-4.89-2.71-7.22-.16-.36-.35-.7-.54-1.03l-5.49-.02-7.54,19.1h4.24c.34,0,1.87-4.13,2.08-4.81l7.97.09c.96,1.44,1.05,3.37,2.05,4.73h4.24c-1.06-3.72-2.85-7.24-4.31-10.83ZM167.02,42.37c.75-2.28,1.89-4.51,2.66-6.79l2.78,7.27h-5.21c-.07,0-.33-.21-.24-.48Z"/>
  </g>
  <rect class="cls-2" x="111.69" y="44.06" width=".24" height="6.54"/>
  <rect class="cls-4" x="153.58" y="36.8" width=".24" height="13.8"/>
  <g>
    <path class="cls-7" d="M39.28,28.96c6.29-.11,15.6,2.27,18.22,8.71,3.7,9.1-8.42,14.43-15.59,14.83-6.74.38-17.68-2.02-19.81-9.52-2.63-9.29,10.03-13.89,17.18-14.02ZM44.17,37.66c2.1-.13,8.93-2.26,5.12-5.07s-14.33-2.55-18.25-.26c-3.47,2.02-.45,3.96,1.95,4.72.88.28,1.86.45,2.77.61.05-2.52,2.52-9.31,5.92-6.2,1.51,1.38,2.19,4.25,2.49,6.2ZM42.51,37.88c-.14-1.26-.95-4.34-2.49-4.43-1.65-.09-2.51,3.13-2.6,4.43h5.09ZM35.42,40.67c-2.32-.46-4.8-1-6.79-2.34-1.14-.76-2.24-1.84-2.16-3.32-2.01,2.15-2.54,5.44-1.49,8.18,1.51,3.95,5.95,6.44,9.88,7.38,1.16.28,2.34.4,3.51.58.1-.31-.42-.58-.61-.83-1.95-2.58-2.25-6.54-2.34-9.66ZM41.52,51.05c8.05,0,18.36-7.51,12-16.04-.59,4-5.81,5-9.13,5.64.03,1.26.04,2.2,0,2.6-.25,2.74-.96,5.75-2.88,7.8ZM42.74,40.87h-5.53c.02,1.46.23,3.12.77,4.48,1.08,2.7,2.81,2.78,3.93.05.58-1.43.74-3,.83-4.53Z"/>
    <path class="cls-1" d="M39.24,28c6.66-.12,16.54,2.4,19.32,9.23,3.92,9.65-8.93,15.3-16.53,15.72-7.15.4-18.75-2.14-21-10.09-2.79-9.86,10.63-14.72,18.22-14.86ZM44.43,37.24c2.22-.14,9.47-2.4,5.43-5.38s-15.2-2.7-19.35-.27c-3.68,2.15-.48,4.2,2.07,5.01.93.29,1.97.48,2.93.64.06-2.67,2.67-9.88,6.28-6.57,1.6,1.47,2.32,4.5,2.64,6.57ZM42.67,37.47c-.15-1.34-1.01-4.61-2.64-4.7-1.75-.1-2.66,3.32-2.75,4.7h5.4ZM35.14,40.42c-2.46-.48-5.09-1.06-7.2-2.48-1.21-.81-2.37-1.95-2.29-3.52-2.13,2.28-2.69,5.77-1.58,8.68,1.6,4.19,6.31,6.82,10.47,7.83,1.23.3,2.48.42,3.72.62.1-.33-.45-.62-.64-.88-2.07-2.73-2.39-6.93-2.48-10.25ZM41.61,51.43c8.53,0,19.46-7.97,12.73-17.01-.63,4.25-6.17,5.3-9.68,5.98.03,1.33.04,2.34,0,2.75-.27,2.91-1.01,6.1-3.05,8.27ZM42.9,40.64h-5.87c.02,1.55.24,3.31.82,4.75,1.14,2.87,2.98,2.95,4.17.05.62-1.52.78-3.18.88-4.81Z"/>
  </g>
</svg>