<?xml version="1.0" encoding="UTF-8"?>
<svg id="Layer_1" data-name="Layer 1" xmlns="http://www.w3.org/2000/svg" viewBox="0 0 200.89 81.89">
  <defs>
    <style>
      .cls-1 {
        fill: #fff;
      }

      .cls-2 {
        fill: #223266;
      }

      .cls-3 {
        fill: #f8af19;
      }

      .cls-4 {
        fill: #dc2627;
      }
    </style>
  </defs>
  <path class="cls-3" d="M174.03,20.35v41.47H26.82V20.35h147.21ZM174.13,20.08H26.92v6.01s.35.05.41.31c.81-.37,1.36-.15,2.12-.15,46.08.1,92.13.27,138.13-.01,2.18-.01,4.4.12,6.55-.15v-6.01ZM52.02,29.64c-1.29.21-2.28.1-3.57.51-4.02,1.25-6.07,4.88-6.51,8.9-3.48,1.11-7.75,3.59-8.86,7.31-1.79,6,3.4,10.32,8.61,11.82l.02.9h10.78l-.16-.92c4.57-1.13,9.51-4.91,9.09-10.1-.37-4.58-5.23-8.05-9.41-8.93l-.11-.15c0-.07.12-.12.12-.16v-9.17ZM83.79,54.09c6.08,5.93,16.94,3.69,19.97-4.34,4.04-10.71-5.12-21.83-16.32-17.27-8.19,3.34-9.75,15.65-3.64,21.6ZM77.73,32.1h-6.47l.15,5.32c.1,3.45.73,10.53-.26,13.6-.87,2.7-3.78,3.02-6.2,2.35l1.31,4.47c.57.67,3.94.1,4.82-.1,4.63-1.08,6.25-4.07,6.5-8.6.31-5.6-.36-11.43.15-17.04ZM122.23,32.1h-18.32c-.04.11.15.18.15.23v4.32s-.21.22-.15.38l6.31-.31-.08,20.04h6.24c-.26-1.76-.1-3.55-.15-5.32,0-.36-.16-.7-.17-1.07-.09-4.54-.01-9.12.16-13.65l6.01.31v-4.93ZM130.24,32.1h-6.31c-.12.66.14,1.31.16,1.92.16,4.75-.31,9.8-.01,14.5.42,6.69,4.83,9.26,11.18,8.86,11.57-.73,7.98-12.52,8.53-20.44l.31-4.85h-6.47c.12,1.14.28,2.47.32,3.62.12,3.79.25,8.62,0,12.35-.15,2.25-.86,4.67-3.46,4.86-3.29.23-4.22-1.96-4.4-4.85-.28-4.5,0-9.37.17-13.87.02-.69-.03-1.4,0-2.09ZM152.34,32.1h-5c.22,3,.12,6.01.15,9.02.04,4.65.12,9.34-.15,14.02-.03.54.02,1.08,0,1.62h5.62v-13.57s9.7,13.57,9.7,13.57h5c.14-.8-.14-1.63-.16-2.38-.2-6.57-.2-13.33,0-19.9.02-.75.3-1.58.16-2.38h-5.85l.31,13.56-9.78-13.56Z"/>
  <path class="cls-4" d="M174.13,20.08v6.01c-2.16.27-4.37.13-6.56.15-46.04.29-92.14.12-138.27.01-.76,0-1.31-.22-2.13.15-.06-.26-.41-.29-.41-.31v-6.01h147.36Z"/>
  <path class="cls-2" d="M152.32,32.1l9.79,13.56-.31-13.56h5.86c.14.8-.14,1.63-.16,2.38-.2,6.57-.2,13.33,0,19.9.02.75.3,1.58.16,2.38h-5.01l-9.71-13.57v13.57h-5.63c.02-.54-.03-1.08,0-1.62.27-4.68.19-9.37.15-14.02-.03-3.01.07-6.02-.15-9.02h5.01Z"/>
  <path class="cls-2" d="M83.7,54.09c-6.11-5.95-4.55-18.26,3.65-21.6,11.22-4.56,20.39,6.56,16.34,17.27-3.04,8.03-13.9,10.27-19.99,4.34ZM91.31,35.84c-5.72.78-6.05,10.6-3.82,14.53s8.04,3.58,9.9-.59c2.13-4.8,1.17-14.93-6.08-13.94Z"/>
  <path class="cls-2" d="M130.2,32.1c-.02.69.03,1.39,0,2.09-.16,4.5-.45,9.37-.17,13.87.18,2.9,1.11,5.09,4.41,4.85,2.61-.19,3.31-2.61,3.47-4.86.25-3.73.12-8.56,0-12.35-.04-1.14-.19-2.47-.32-3.62h6.47l-.31,4.85c-.56,7.92,3.04,19.71-8.54,20.44-6.35.4-10.76-2.17-11.19-8.86-.3-4.7.17-9.75.01-14.5-.02-.61-.28-1.26-.16-1.92h6.32Z"/>
  <path class="cls-2" d="M51.89,29.64v9.17s-.11.08-.12.16l.11.15c4.19.88,9.04,4.35,9.42,8.93.42,5.2-4.53,8.98-9.1,10.1l.16.92h-10.79l-.02-.9c-5.22-1.5-10.41-5.82-8.62-11.82,1.11-3.72,5.39-6.2,8.87-7.31.44-4.02,2.49-7.65,6.52-8.9,1.3-.4,2.28-.3,3.58-.51ZM47.07,32.44c-.79.23-.67,1.43,0,1.64,1.58.48,1.54-2.08,0-1.64ZM46.14,39.23c-1.37.28-2.26,1.98-2.66,3.2-1.1,3.34-1.22,12.01,1.31,14.72,1.23,1.32,3.25,1.11,4.39-.23,2.59-3.04,2.75-14.63-.54-17.19-.73-.57-1.6-.69-2.51-.5ZM38.02,44.13h-3.01c-.75,1.08-1.54,2.36-1.62,3.7h3.39c.03-1.34.63-2.55,1.23-3.7ZM41.56,44.13h-2.77c-.58,1.18-1.25,2.35-1.39,3.7h4.16v-3.7ZM56.36,47.83c-.06-1.34-.65-2.65-1.46-3.7h-2.47l-.23.23v3.47h4.16ZM60.52,47.83c-.25-1.34-.8-2.7-1.77-3.7h-2.85c.5,1.21,1.11,2.37,1.23,3.7h3.39ZM36.63,48.6h-3.39c.14,1.29.33,2.65,1.16,3.7h2.85c-.4-1.19-.59-2.44-.62-3.7ZM41.56,48.6h-4.16c-.04,1.25.01,2.62.69,3.7h3.47v-3.7ZM56.51,48.6h-4.32v3.7h3.7c.36-1.2.72-2.43.62-3.7ZM60.52,48.6h-3.39c.15,1.31-.2,2.45-.46,3.7h2.85c.7-1.08,1.1-2.41,1-3.7ZM37.55,52.91h-2.62c.29.89,1.28,1.67,2.02,2.22,1.22.92,2.63,1.6,4.07,2.09.2-.08-.18-.32-.25-.37-1.37-1.14-2.61-2.17-3.22-3.95ZM41.56,52.91h-3.24c.61,1.53,1.92,2.78,3.24,3.7v-3.7ZM55.43,52.91h-3.01l-.23.23v3.47c.72-.07,3.67-3.28,3.24-3.7ZM58.98,52.91h-2.54c-.91,1.6-1.97,2.99-3.47,4.09-.02.12.14.09.23.08,1.48-.22,4.63-2.5,5.55-3.7.12-.16.3-.19.23-.46Z"/>
  <path class="cls-2" d="M122.18,32.1v4.93l-6.01-.31c-.17,4.53-.25,9.11-.16,13.65,0,.36.16.7.17,1.07.05,1.78-.11,3.56.15,5.32h-6.24l.08-20.04-6.32.31c-.06-.17.15-.34.15-.38v-4.32s-.2-.12-.15-.23h18.34Z"/>
  <path class="cls-2" d="M77.63,32.1c-.5,5.61.17,11.44-.15,17.04-.25,4.53-1.88,7.52-6.51,8.6-.89.21-4.26.78-4.83.1l-1.31-4.47c2.43.67,5.33.35,6.21-2.35.99-3.07.35-10.15.26-13.6l-.15-5.32h6.47Z"/>
  <path class="cls-3" d="M91.31,35.84c7.25-.99,8.21,9.14,6.08,13.94-1.86,4.18-7.65,4.57-9.9.59s-1.9-13.75,3.82-14.53Z"/>
  <path class="cls-1" d="M46.14,39.23c.91-.19,1.78-.07,2.51.5,3.29,2.56,3.13,14.16.54,17.19-1.14,1.33-3.16,1.54-4.39.23-2.53-2.71-2.41-11.38-1.31-14.72.4-1.22,1.29-2.92,2.66-3.2Z"/>
  <path class="cls-1" d="M56.51,48.6c.11,1.27-.26,2.5-.62,3.7h-3.7v-3.7h4.32Z"/>
  <path class="cls-1" d="M41.56,48.6v3.7h-3.47c-.68-1.08-.73-2.45-.69-3.7h4.16Z"/>
  <path class="cls-1" d="M56.36,47.83h-4.16v-3.47l.23-.23h2.47c.82,1.05,1.4,2.36,1.46,3.7Z"/>
  <path class="cls-1" d="M41.56,44.13v3.7h-4.16c.14-1.35.8-2.52,1.39-3.7h2.77Z"/>
  <path class="cls-1" d="M60.52,47.83h-3.39c-.13-1.33-.74-2.49-1.23-3.7h2.85c.97,1,1.52,2.36,1.77,3.7Z"/>
  <path class="cls-1" d="M38.02,44.13c-.6,1.15-1.21,2.36-1.23,3.7h-3.39c.08-1.34.87-2.62,1.62-3.7h3.01Z"/>
  <path class="cls-1" d="M60.52,48.6c.1,1.29-.3,2.61-1,3.7h-2.85c.27-1.25.61-2.39.46-3.7h3.39Z"/>
  <path class="cls-1" d="M36.63,48.6c.02,1.26.22,2.51.62,3.7h-2.85c-.82-1.05-1.01-2.41-1.16-3.7h3.39Z"/>
  <path class="cls-1" d="M37.55,52.91c.61,1.77,1.85,2.81,3.22,3.95.06.05.45.29.25.37-1.44-.5-2.85-1.18-4.07-2.09-.73-.55-1.72-1.33-2.02-2.22h2.62Z"/>
  <path class="cls-1" d="M58.98,52.91c.07.27-.11.31-.23.46-.92,1.2-4.07,3.48-5.55,3.7-.09.01-.25.04-.23-.08,1.5-1.1,2.56-2.48,3.47-4.09h2.54Z"/>
  <path class="cls-1" d="M55.43,52.91c.43.42-2.51,3.63-3.24,3.7v-3.47l.23-.23h3.01Z"/>
  <path class="cls-1" d="M41.56,52.91v3.7c-1.32-.92-2.63-2.17-3.24-3.7h3.24Z"/>
  <path class="cls-1" d="M47.07,32.44c1.53-.44,1.57,2.12,0,1.64-.67-.21-.79-1.41,0-1.64Z"/>
</svg>