<?xml version="1.0" encoding="UTF-8"?>
<svg id="Layer_1" data-name="Layer 1" xmlns="http://www.w3.org/2000/svg" viewBox="0 0 200.89 81.89">
  <defs>
    <style>
      .cls-1 {
        fill: #e62829;
      }
    </style>
  </defs>
  <path class="cls-1" d="M26.62,54.22l1.17-2.32.65-.21-1.82-7.37,4.24,6.52c.27.23,1.2-.28,1.61-.27l.61-7.97,1.83,7.26,1.62-.46-2.53-9.79c-.38.12-2.43.46-2.52.73l-.57,7.61-4.09-6.41-2.43.6c-.25.12.05.61,0,.66l-1.52-.71,2.22-1.66-2.12-1.62,2.32-1.16c.04-.15-.04-.17-.1-.25-.2-.29-1.72-1.59-1.72-1.71l2.52-1.01-1.72-2.17,2.63-.51-1.41-2.42,2.73-.2-1.01-2.52,2.63.1-.71-2.62,2.63.4-.4-2.72,2.52.81-.1-2.72,2.53,1.11.2-2.72,2.27,1.41.71-2.72c.26.16,2.01,1.86,2.17,1.72l.86-2.52c.12,0,1.42,1.51,1.72,1.72.09.06.1.14.25.1l1.01-2.42,1.77,2.22,1.37-2.32,1.46,2.32,1.72-2.02,1.11,2.42c.49-.38.95-.8,1.42-1.21.21-.19.27-.55.65-.51l.76,2.52,2.17-1.61.41,2.73,2.42-1.31.1,2.73,2.53-.91-.2,2.62,2.63-.61-.5,2.72,2.63-.3-.91,2.52h2.73l-1.21,2.37c.01.24,2.14.37,2.45.47.1.03.2.11.17.23l-1.51,2.07,2.53.71c.06.08-.46.7-.55.81-.17.19-1.28,1.15-1.16,1.31l2.42,1.06-1.97,1.66-2.97.8-2.14-8.16-1.71.4,2.53,9.79,6.04-1.6.53.19c.06.23-.05.17-.13.23-.31.25-2.06,1.11-1.99,1.42.5.56,1.4.92,1.91,1.43.08.08.15.09.11.24l-2.32,1.16,1.92,1.96-2.53.81,1.62,2.22-2.62.66,1.31,2.27-2.63.2,1.01,2.52c-.34.13-2.6-.33-2.62.05l.7,2.47-2.53-.4.4,2.62-2.63-.71.1,2.62-2.42-1.01-.2,2.72-2.27-1.31-.71,2.62-2.02-1.61-.86,2.52c-.69-.5-1.18-1.22-1.77-1.81-.08-.08-.09-.14-.24-.11l-1.01,2.42c-.16.04-.16-.03-.24-.11-.47-.47-.84-1.32-1.32-1.81-.11-.11-.18-.24-.35-.2l-1.37,2.22-1.26-2.32c-.16-.04-.16.03-.24.11-.46.45-.86,1.3-1.37,1.76-.1.09-.14.18-.3.15l-1.06-2.42-1.97,1.81-.61-2.52c-.23-.25-2.21,1.6-2.32,1.51l-.41-2.62c-.18-.17-2.31,1.34-2.42,1.21l-.1-2.62-2.53.91.26-2.52-.11-.21-2.48.7.5-2.62-2.63.3.81-2.62h-2.63ZM63.1,31.81l-7.16,1.96,2.51,9.75,7.17-1.98-.46-1.46-5.4,1.38-.66-2.69,4.71-1.31-.3-1.51-4.79,1.2-.67-2.41,5.46-1.42-.41-1.51ZM52.59,36.25l2.93-.76c.16-.11.05-.13.02-.23-.05-.22-.29-1.28-.47-1.31l-13.6,3.6.3,1.51c.17.17,2.47-.65,2.91-.69.11-.01.2-.04.28.08l2.17,8.14,1.61-.52-2.11-8.22,4.34-1.11,2.07,8.07c.21.29,1.4-.22,1.73-.3l-2.18-8.28ZM45.92,46.95l-5.8-8.79c-.34-.25-1.7.25-2.13.41l-.96,10.7,1.77-.5.16-2.11c.69-.03,3.62-1.18,4.03-.97.31.15.82,1.55,1.18,1.65l1.75-.39Z"/>
  <path class="cls-1" d="M84.93,29.03c.11-.36,2.08-.05,2.47-.05,1.22.03,2.53.03,3.75,0,.34,0,1.41-.28,1.62,0l4.85,19.89,4.75-19.79,7.83-.19-.04,26.34h-5v-21.3l-4.95,21.26c-.07.05-.17.04-.25.05-.91.11-3.85.11-4.76,0-.11-.01-.23,0-.3-.1l-4.9-21.1v21.2h-5.05v-26.2Z"/>
  <path class="cls-1" d="M135.46,30.5v5.3l.15.15h4.14l.15-.15v-5.3h4.95v5.3l.15.15h3.08v3.63h-3.23v10.95c0,.39.55,1.06.96,1.06h2.17l.06,3.74-.12.08c-2.86.16-7.28.68-7.97-3.01-.14-.73-.04-1.3-.04-1.97-.01-1.72-.12-3.43-.11-5.16s.31-3.62.11-5.35c-.02-.15-.01-.26-.16-.35h-4.14l-.15.15v10.4c0,.19.19.94.32,1.1.1.13.53.37.64.37h2.17v3.68l-.17.14c-2.22.21-6.58.49-7.59-2.08-.05-.13-.33-1.03-.33-1.09v-12.67h-2.58l-.15-.15v-3.48h2.58l.15-.15v-5.3h4.95Z"/>
  <path class="cls-1" d="M128.99,55.23h-5.41l-.61-2.12c-3.77,4.54-12.54,3.3-12.06-3.67.31-4.5,3.65-5.18,7.34-5.89,1.75-.34,4.94-.11,4.56-2.7-.27-1.88-3.89-1.87-5.18-1.15-.94.53-.97,1.28-1.33,2.2h-4.55s-.14.14-.25.1c.08-6.06,6.28-7.45,11.22-6.41,2.98.63,4.94,2.16,5.16,5.35.24,3.62-.3,7.61,0,11.21.03.4.16,1.03.33,1.39.32.66,1.04.66.78,1.69ZM122.93,45.84c-1.5.74-3.2.8-4.75,1.26-3.29.98-2.77,4.91.26,5,2.05.06,4.49-1.57,4.49-3.79v-2.47Z"/>
  <path class="cls-1" d="M152.14,46.95c.24,3.31,2.16,5.04,5.51,4.75,1.29-.11,2.66-.98,3.08-2.22h4.24c-.52,3.39-3.27,5.98-6.72,6.26-8.89.7-13.11-6.52-10.38-14.51,2.42-7.1,13.22-8.09,16.68-1.77.52.95.59.99.68,1.97.19,1.91.1,3.55,0,5.28-.01.07-.28.25-.32.25h-12.78ZM160.83,43.52c-.2-5.68-8.18-5.63-8.49,0h8.49Z"/>
  <path class="cls-1" d="M170.73,55.23h-5.05s-.14-25.48-.19-26.26l5.1-.07.15.13v26.2Z"/>
  <polygon class="cls-1" points="178.01 55.23 172.75 55.23 172.75 50.03 172.9 49.88 177.86 49.88 178.01 50.03 178.01 55.23"/>
  <path class="cls-1" d="M25.51,46.75l.51,2.12-2.02-.4c-.12-.14.7-.79.76-1.01l.76-.71Z"/>
  <path class="cls-1" d="M24.8,44.03l.51,2.02-2.12-.71c-.06-.07,1.26-1.14,1.36-1.21.09-.06.1-.14.25-.1Z"/>
  <polygon class="cls-1" points="26.72 51.59 25.11 51.39 26.27 49.78 26.72 51.59"/>
  <polygon class="cls-1" points="39.55 40.09 42.08 44.23 39.05 45.03 39.35 40.14 39.55 40.09"/>
  <path class="cls-1" d="M165.68,55.23s0-25.47-.04-26.24l4.95-.08"/>
</svg>